<svg xmlns="http://www.w3.org/2000/svg" width="199.092" height="7.719" viewBox="0 0 199.092 7.719">
  <defs>
    <style>
      .cls-1 {
        fill: #fff;
        fill-rule: evenodd;
      }
    </style>
  </defs>
  <path id="_モンキー_パンチ_2019映画_ルパン三世_製作委員会_のコピー" data-name="©モンキー・パンチ／2019映画「ルパン三世」製作委員会 のコピー" class="cls-1" d="M807.429,703.2a3.166,3.166,0,0,0,3.33,3.339,3.206,3.206,0,0,0,3.312-3.393,3.169,3.169,0,0,0-3.312-3.348A3.208,3.208,0,0,0,807.429,703.2Zm6.021-.054a2.627,2.627,0,0,1-2.691,2.826,2.58,2.58,0,0,1-2.7-2.772,2.614,2.614,0,0,1,2.7-2.826A2.582,2.582,0,0,1,813.45,703.143Zm-1.512,1.512-0.117-.3c-0.063-.144-0.1-0.207-0.18-0.207a0.682,0.682,0,0,0-.171.045,1.253,1.253,0,0,1-.45.09,1.041,1.041,0,0,1-1.143-1.08,1.1,1.1,0,0,1,1.161-1.179,1.219,1.219,0,0,1,.513.108,0.526,0.526,0,0,0,.18.054c0.072,0,.1-0.054.153-0.2l0.162-.441a0.4,0.4,0,0,0,.036-0.153,0.233,0.233,0,0,0-.2-0.2,2.243,2.243,0,0,0-.81-0.144,2.044,2.044,0,0,0-2.187,2.169,1.849,1.849,0,0,0,2,1.953,2.359,2.359,0,0,0,.9-0.171,0.225,0.225,0,0,0,.2-0.189A0.558,0.558,0,0,0,811.938,704.655Zm5.1-3.343v1h-1.351v1.219h1.359s0,0.052,0,.141,0,0.188.008,0.3,0,0.207,0,.285a2.931,2.931,0,0,0,.211,1.032,1.068,1.068,0,0,0,.566.574,2.108,2.108,0,0,0,.8.176c0.276,0,.571.006,0.887,0l0.777-.008,0.312,0v-1.266l-0.32.012-0.75.027c-0.292.011-.549,0.013-0.773,0.008a0.472,0.472,0,0,1-.434-0.18,1.136,1.136,0,0,1-.113-0.5c0-.062,0-0.14,0-0.234s0-.177,0-0.25v-0.117h2.726v-1.219H818.23l0.007-1h2.422v-1.25h-4.742v1.25h1.117Zm7.956,0v-1.219h-2.437v1.219h2.437Zm1.516,0.094a5.963,5.963,0,0,1-.809,1.676,4.832,4.832,0,0,1-1,1.011,3.273,3.273,0,0,1-1.027.539,3.915,3.915,0,0,1-.8.161,2.2,2.2,0,0,1-.32.011v1.274a3.94,3.94,0,0,0,.41-0.028,4.91,4.91,0,0,0,1.035-.238,5.2,5.2,0,0,0,1.34-.691,5.862,5.862,0,0,0,1.363-1.387,7.1,7.1,0,0,0,1.047-2.328h-1.242ZM831,702l0.07,1.047h-1.992v1.226h2.078l0.14,2.016h1.258l-0.14-2.016h1.9v-1.226H832.32L832.25,702h2.062v-1.2h-2.141l-0.078-1.062h-1.25l0.071,1.062h-1.836V702H831Zm8.874,1.554v-1.226h-3.61v1.226h3.61Zm4.039,0.235v-1.571h-1.562v1.571h1.562Zm7.49-3.578a0.385,0.385,0,0,1-.278.109,0.374,0.374,0,0,1-.383-0.383,0.381,0.381,0,0,1,.11-0.281,0.37,0.37,0,0,1,.273-0.109,0.385,0.385,0,0,1,.278.109,0.376,0.376,0,0,1,.113.281A0.367,0.367,0,0,1,851.4,700.211Zm-1.137-.282h-0.445v1.633a12.574,12.574,0,0,0,.128,1.914,12.073,12.073,0,0,0,.286,1.387,5.866,5.866,0,0,0,.453,1.129h1.3s-0.054-.115-0.148-0.328-0.2-.517-0.328-0.91a11.127,11.127,0,0,1-.332-1.4,10.725,10.725,0,0,1-.153-1.793v-0.773a0.607,0.607,0,0,0,.094.008,0.843,0.843,0,0,0,.613-0.25,0.821,0.821,0,0,0,.254-0.61,0.867,0.867,0,0,0-1.476-.617,0.845,0.845,0,0,0-.25.609h0Zm-2.43,6.063q0.226-.57.4-1.129a9.04,9.04,0,0,0,.285-1.387,14.37,14.37,0,0,0,.113-1.914v-1.633h-1.211v1.633a10.73,10.73,0,0,1-.152,1.793,11.3,11.3,0,0,1-.332,1.4q-0.187.59-.328,0.91c-0.094.213-.144,0.323-0.149,0.328h1.375Zm8.293-4.68v-1.219h-2.438v1.219h2.438Zm1.515,0.094a5.963,5.963,0,0,1-.808,1.676,4.832,4.832,0,0,1-1,1.011,3.277,3.277,0,0,1-1.028.539,3.89,3.89,0,0,1-.8.161,2.2,2.2,0,0,1-.32.011v1.274a3.925,3.925,0,0,0,.41-0.028,4.9,4.9,0,0,0,1.035-.238,5.181,5.181,0,0,0,1.34-.691,5.865,5.865,0,0,0,1.364-1.387,7.1,7.1,0,0,0,1.046-2.328h-1.242Zm4.561,1.93a1.71,1.71,0,0,1-.352.859,1.9,1.9,0,0,1-.625.5,2.949,2.949,0,0,1-.617.234,1.55,1.55,0,0,1-.281.055v1.3s0.1-.022.293-0.066a5.365,5.365,0,0,0,.718-0.239,3.827,3.827,0,0,0,.875-0.5,3.692,3.692,0,0,0,.809-0.851,2.61,2.61,0,0,0,.437-1.289h1.8v-1.219H863.47v-0.883h1.563v-1.219h-4.68v1.219h1.875v0.883h-2.094v1.219h2.071Zm8.365-3.414-4.485,6.164h1.328l4.485-6.164H870.57Zm6.885,3.125a2.33,2.33,0,0,0,.445-1.352,1.61,1.61,0,0,0-.523-1.273,2.186,2.186,0,0,0-1.493-.461,5.054,5.054,0,0,0-1.843.336v1.242a4.178,4.178,0,0,1,1.64-.446,0.69,0.69,0,0,1,.821.735,1.821,1.821,0,0,1-.5,1.156,15.089,15.089,0,0,1-2.079,1.8v1.093h4v-1.093h-2.21v-0.016A10.322,10.322,0,0,0,877.455,703.047Zm1.378-.086a3.651,3.651,0,0,0,.571,2.3,2.522,2.522,0,0,0,3.5,0,4.881,4.881,0,0,0,0-4.593,2.127,2.127,0,0,0-1.75-.7,2.093,2.093,0,0,0-1.739.7A3.624,3.624,0,0,0,878.833,702.961Zm1.383,0a3.641,3.641,0,0,1,.227-1.532,0.745,0.745,0,0,1,.707-0.441,0.755,0.755,0,0,1,.711.441,5.2,5.2,0,0,1,0,3.059,0.754,0.754,0,0,1-.711.437,0.731,0.731,0,0,1-.7-0.437A3.521,3.521,0,0,1,880.216,702.965Zm4.083-1.8v1.492l1.539-1.117h0.008v4.343h1.414v-5.843h-1.414Zm4.827,4.64a5.956,5.956,0,0,0,1.335.157q2.618,0,2.618-3.438a2.757,2.757,0,0,0-.59-1.914,2.142,2.142,0,0,0-1.668-.648,2.382,2.382,0,0,0-1.645.539,1.858,1.858,0,0,0-.605,1.461,2.023,2.023,0,0,0,.508,1.488,1.968,1.968,0,0,0,1.461.512,1.885,1.885,0,0,0,1.187-.352l0.024,0.008a1.511,1.511,0,0,1-.383,1.015,1.286,1.286,0,0,1-.953.344,3.75,3.75,0,0,1-1.289-.226V705.8Zm2.375-4.586a0.989,0.989,0,0,1,.265.719,1.215,1.215,0,0,1-.254.828,0.99,0.99,0,0,1-1.39.008,1.236,1.236,0,0,1-.246-0.836,1.015,1.015,0,0,1,.25-0.726A1.012,1.012,0,0,1,891.5,701.218Zm4.853,0.539H895.94v-1.21h0.414v1.21Zm-0.414,1.008h0.414v1.313H895.94v-1.313Zm1.453-3.25h-2.508v6.336h1.055v-0.742h1.453v-5.594Zm1.477,1.7h0.422v1.016c0,0.234-.006.412-0.016,0.531H898.87v-1.547Zm1.969,1.547h-0.493c0.006-.119.008-0.294,0.008-0.523v-1.024h0.485v1.547Zm1.406,0h-0.336v-2.578h-1.555v-1.055h-1.062v1.055h-1.446v2.578h-0.32V703.8h1.563a3.168,3.168,0,0,1-2.125,1.946,2.7,2.7,0,0,1,.4.406,3.6,3.6,0,0,1,.328.453,3.778,3.778,0,0,0,2.25-1.93,4.031,4.031,0,0,0,1.688,1.993,3.338,3.338,0,0,1,.336-0.493,3.772,3.772,0,0,1,.4-0.437,3.338,3.338,0,0,1-1.7-1.938h1.586v-1.039Zm2.913,2.328v-4.14h-1.125v5.687h1.125v-0.453h4.523v0.453h1.125v-5.687h-1.125v4.14h-4.523Zm2.726-2.609v-0.469h0.445v0.469h-0.445Zm0,1.344v-0.477h0.445v0.477h-0.445Zm-0.992-.477v0.477h-0.43v-0.477h0.43Zm0-1.336v0.469h-0.43v-0.469h0.43Zm-3.109-1.437H906.8v0.508h-1.281v3.679h3.8v-3.679h-1.344v-0.508h3.086V699.5h-7.281v1.078Zm11.577-.3H917.6v-1.024h-3.469v6.133h1.227v-5.109Zm9.524,2.984c-0.187.2-.359,0.382-0.515,0.535a3.193,3.193,0,0,1-.493.4,2.939,2.939,0,0,1-.507.269v-4.523h-1.188v6.219a1.879,1.879,0,0,0,.285-0.028,3.76,3.76,0,0,0,.684-0.168,3.958,3.958,0,0,0,.859-0.414,3.813,3.813,0,0,0,.875-0.773v-1.516Zm-4.1,2.727a2.778,2.778,0,0,0,.187-0.41,7.791,7.791,0,0,0,.356-1.254,10.29,10.29,0,0,0,.191-2.078v-2.219h-1.18v2.219a8.088,8.088,0,0,1-.129,1.5,8.48,8.48,0,0,1-.3,1.183,10.556,10.556,0,0,1-.438,1.063h1.313Zm10.431-5.781a0.382,0.382,0,0,1-.277.109,0.373,0.373,0,0,1-.383-0.383,0.381,0.381,0,0,1,.109-0.281,0.371,0.371,0,0,1,.274-0.109,0.382,0.382,0,0,1,.277.109,0.372,0.372,0,0,1,.113.281A0.363,0.363,0,0,1,931.214,700.211Zm-1.137-.282h-0.445v1.633a12.563,12.563,0,0,0,.129,1.914,12.315,12.315,0,0,0,.285,1.387,5.866,5.866,0,0,0,.453,1.129h1.3s-0.055-.115-0.148-0.328a9.661,9.661,0,0,1-.329-0.91,11.3,11.3,0,0,1-.332-1.4,10.73,10.73,0,0,1-.152-1.793v-0.773a0.6,0.6,0,0,0,.094.008,0.845,0.845,0,0,0,.613-0.25,0.825,0.825,0,0,0,.254-0.61,0.868,0.868,0,0,0-1.477-.617,0.849,0.849,0,0,0-.25.609h0Zm-2.429,6.063q0.226-.57.4-1.129a8.807,8.807,0,0,0,.285-1.387,14.19,14.19,0,0,0,.114-1.914v-1.633h-1.211v1.633a10.725,10.725,0,0,1-.153,1.793,11.127,11.127,0,0,1-.332,1.4q-0.187.59-.328,0.91c-0.094.213-.143,0.323-0.148,0.328h1.375Zm8.292-4.68v-1.219H933.5v1.219h2.437Zm1.516,0.094a5.963,5.963,0,0,1-.809,1.676,4.784,4.784,0,0,1-1,1.011,3.273,3.273,0,0,1-1.027.539,3.915,3.915,0,0,1-.8.161,2.2,2.2,0,0,1-.32.011v1.274a3.925,3.925,0,0,0,.41-0.028,4.91,4.91,0,0,0,1.035-.238,5.2,5.2,0,0,0,1.34-.691,5.862,5.862,0,0,0,1.363-1.387,7.083,7.083,0,0,0,1.047-2.328h-1.242Zm2.662-.414h6.125V699.8h-6.125v1.188Zm0.578,2.547h4.9v-1.188h-4.9v1.188Zm-1.031,2.679h6.992v-1.195h-6.992v1.195Zm12.847-4.164h0.82v1.032h-0.82v-1.032Zm2,0h1.164v-1.125h-1.164V699.2h-1.18v1.726h-0.82v-1.8h-1.18v1.8h-0.859V699.3h-1.2v1.632h-1.117v1.125h1.117v4.586h1.2v-0.461h4.914v-1.117h-4.914v-3.008h0.859v2.407h1.18v-0.3h0.82v0.3h1.18v-2.407Zm5.2,3.672h-2.243v1.024h3.469v-6.133h-1.226v5.109Zm9.457-6.625v3.11a0.127,0.127,0,0,1-.157.125q-0.273.015-.812-0.008a3.242,3.242,0,0,1,.328.906,3.656,3.656,0,0,0,1.281-.148,0.59,0.59,0,0,0,.321-0.293,1.424,1.424,0,0,0,.086-0.559V699.1h-1.047Zm-1.672.266v2.664h1.031v-2.664H967.5Zm-0.695,4.992a3.959,3.959,0,0,0,.546.883q-0.859.117-1.367,0.172v-0.555a4.751,4.751,0,0,0,.821-0.5h0Zm1.5,0.453a2.778,2.778,0,0,1-.477-0.562h1.391a7.2,7.2,0,0,1-.914.562h0Zm-4.18-4.562h0.664v0.218h-0.813c0.058-.078.107-0.151,0.149-0.218h0Zm6.375,4v-0.907h-3.055v-0.39h-0.664l0.043-.02a0.11,0.11,0,0,1,.035-0.011,0.447,0.447,0,0,0,.227-0.215,1.045,1.045,0,0,0,.062-0.41v-0.868h-1.375v-0.2h1.438v-0.758h-1.438V700.25h1.266v-0.719h-1.266v-0.492H964.79v0.492h-0.3c0-.016.039-0.107,0.1-0.274l-0.836-.2a2.957,2.957,0,0,1-.617,1.11c0.156,0.083.333,0.185,0.531,0.3h-0.461v0.758h1.578v0.2H963.5v1.625h0.867v-0.945h0.422v1.109h0.984v-1.109h0.453V702.3a0.075,0.075,0,0,1-.086.086c-0.067,0-.19,0-0.367-0.015a3.982,3.982,0,0,1,.266.648h0.234v0.32H963.22v0.907h2.023a8.778,8.778,0,0,1-2.156.484,3.286,3.286,0,0,1,.6.82,10.174,10.174,0,0,0,1.188-.265v0.25l-0.781.078,0.156,0.937c0.187-.026.667-0.088,1.437-0.187s1.373-.177,1.805-0.235l-0.031-.773a4.449,4.449,0,0,0,2.586,1.3,2.942,2.942,0,0,1,.617-0.914,5.463,5.463,0,0,1-1.539-.414,9.554,9.554,0,0,0,1.172-.664l-0.555-.414H970.5Zm2.4-3.575a6.783,6.783,0,0,1-.993,1.3,4.869,4.869,0,0,1,.348.617,5.538,5.538,0,0,1,.277.641q0.236-.25.336-0.375v3.773h1.18v-5.57a12.729,12.729,0,0,0,.734-1.625l-1.125-.359A8.636,8.636,0,0,1,972.906,700.675Zm6.718-.347h-2.976q0.234-.54.359-0.922l-1.125-.3a8.813,8.813,0,0,1-.711,1.676,5.855,5.855,0,0,1-.961,1.324c0.125,0.094.28,0.225,0.465,0.395a5.059,5.059,0,0,1,.418.418,8.568,8.568,0,0,0,1.016-1.485h0.148v5.2h1.2v-1.687h2.055v-1.078H977.46v-0.719h1.953V702.1H977.46v-0.664h2.164v-1.109Zm5.478,4.445q-0.2-.047-0.61-0.144l-0.6-.145,0.156-.227h1.547a2.03,2.03,0,0,1-.492.516h0Zm2.812-1.531a3.554,3.554,0,0,1,.735-0.953,6.924,6.924,0,0,1-2.024-.742H988.4v-0.93h-2.985v-0.445a18.957,18.957,0,0,0,2.368-.329l-0.836-.8a28.013,28.013,0,0,1-5.1.375,2.93,2.93,0,0,1,.242.875q1.281,0,2.172-.047v0.375h-3v0.93h1.8a6.155,6.155,0,0,1-2.055.8,4.366,4.366,0,0,1,.383.43,3.227,3.227,0,0,1,.32.469,6.156,6.156,0,0,0,2.547-1.422v0.937l-0.508-.14c-0.036.062-.078,0.131-0.125,0.207s-0.1.16-.156,0.254-0.1.169-.141,0.226H981.18v0.945h1.531q-0.375.555-.578,0.805l1.125,0.336,0.039-.062,0.274,0.078a13.544,13.544,0,0,1-2.282.226,2.8,2.8,0,0,1,.453,1.008,10.26,10.26,0,0,0,3.555-.766q1.376,0.414,2.266.766l0.7-.961q-0.664-.227-1.93-0.578a3.969,3.969,0,0,0,.578-0.852h1.618v-0.945h-3.883q0.03-.054.242-0.39l-0.43-.11h0.953v-0.953a6.051,6.051,0,0,0,2.5,1.383h0Zm4.392-2.742v-0.344h2.929V700.5h-2.929Zm-1.172-1.235v2.125h5.344v-2.125h-5.344Zm4.4,4.961v0.219h-3.617v-0.219h3.617Zm0-.929v0.21h-3.617V703.3h3.617Zm0-.93v0.211h-3.617v-0.211h3.617Zm1.219-.774h-5.992v3.625h1.062a8.836,8.836,0,0,1-1.851.594,8.091,8.091,0,0,1,.883.828,9.626,9.626,0,0,0,2.492-.953l-0.657-.469H994.7l-0.734.524a18.824,18.824,0,0,1,2.609.914l1.039-.813q-0.852-.312-1.867-0.625h1v-3.625Zm5.879-1.421a6.132,6.132,0,0,0,1.28,1.25h-2.51a8.034,8.034,0,0,0,1.23-1.25h0Zm1.85,2.312v-0.656a9.448,9.448,0,0,0,1.29.726,6.21,6.21,0,0,1,.75-1.062,6.523,6.523,0,0,1-3.32-2.43h-1.24a6.723,6.723,0,0,1-1.33,1.453,7.392,7.392,0,0,1-1.864,1.149,3.73,3.73,0,0,1,.7.976,9.331,9.331,0,0,0,1.308-.75v0.594h3.71Zm-1.3,2q0.315,0.3.63,0.656l-1.95.071c0.06-.11.13-0.23,0.2-0.36s0.14-.276.22-0.437,0.14-.287.19-0.375h1.55Zm2.8-1.523h-6.667v1.078h1.717a9.4,9.4,0,0,1-.47,1.211c-0.622.021-1.031,0.034-1.223,0.039l0.156,1.14c1.8-.083,3.517-0.169,5.137-0.257a4.133,4.133,0,0,1,.29.468l1.09-.656a6.587,6.587,0,0,0-.72-0.957,12.082,12.082,0,0,0-.97-0.988h1.66v-1.078Z" transform="translate(-807.438 -699.031)"/>
</svg>
