<svg xmlns="http://www.w3.org/2000/svg" width="167.312" height="6.34" viewBox="0 0 167.312 6.34">
  <defs>
    <style>
      .cls-1 {
        fill: #fff;
        fill-rule: evenodd;
      }
    </style>
  </defs>
  <path id="まるしー" class="cls-1" d="M401.479,1115.19a2.74,2.74,0,1,1-2.74-2.78A2.764,2.764,0,0,1,401.479,1115.19Zm-5.272,0a2.533,2.533,0,1,0,2.532-2.57A2.551,2.551,0,0,0,396.207,1115.19Zm4.038,0.4a1.413,1.413,0,0,1-1.448,1.37,1.568,1.568,0,0,1-1.55-1.74,1.613,1.613,0,0,1,1.55-1.81,1.377,1.377,0,0,1,1.429,1.31h-0.821a0.584,0.584,0,0,0-.594-0.61,1.186,1.186,0,0,0-.014,2.15,0.629,0.629,0,0,0,.608-0.67h0.84Zm5.224-1.03h2.507v1.06h-2.507v0.8c0,0.46.045,0.52,0.64,0.52,0.756,0,1.266-.04,1.615-0.06-0.019.52-.019,0.66-0.013,1.12-0.517.01-2.216,0.03-2.559-.04a1.029,1.029,0,0,1-.865-1.24v-1.1h-1.913v-1.06h1.913v-0.85H402.95v-1.06h4.464v1.06h-1.945v0.85Zm4.135-2.03a8,8,0,0,1,1.648,1.07,7.157,7.157,0,0,0-.7,1,6.519,6.519,0,0,0-1.635-1.09Zm-0.568,4.45a7.687,7.687,0,0,0,4.794-3.57,6.741,6.741,0,0,0,.71,1.05,9.3,9.3,0,0,1-4.645,3.64c-0.006.08-.019,0.17-0.116,0.17a0.137,0.137,0,0,1-.117-0.1Zm10.769-3.83,0.123,1.09-1.434.17,0.09,0.62,2.093-.24,0.123,1.08-2.067.25,0.277,2.01-1.188.17-0.278-2.03-2.191.27-0.135-1.1,2.177-.26-0.09-.62-1.532.18-0.135-1.1,1.518-.18-0.135-1,1.175-.11c0.065,0,.156-0.01.156,0.08a0.285,0.285,0,0,1-.11.17l0.1,0.72Zm7.778,1.6v1.18h-5.621v-1.18h5.621Zm3.019,0.58a0.847,0.847,0,1,1-.847-0.86A0.858,0.858,0,0,1,430.6,1115.33Zm3.742-1.99c0.1,0.03.149,0.04,0.149,0.11a0.18,0.18,0,0,1-.155.14,10.212,10.212,0,0,1-1.655,4.15,5.6,5.6,0,0,0-1.156-.54,8.12,8.12,0,0,0,1.6-4.19Zm1.6-.48a13.691,13.691,0,0,1,1.938,4.06c-0.478.23-.5,0.25-1.169,0.6a10.589,10.589,0,0,0-1.751-3.99Zm1.221,0.74a0.645,0.645,0,1,1,.633-0.65A0.641,0.641,0,0,1,437.161,1113.6Zm0-.95a0.3,0.3,0,0,0-.3.3,0.3,0.3,0,1,0,.6,0A0.3,0.3,0,0,0,437.161,1112.65Zm2.276-.12a8.03,8.03,0,0,1,1.648,1.07,7.072,7.072,0,0,0-.7,1,6.519,6.519,0,0,0-1.635-1.09Zm-0.568,4.45a7.687,7.687,0,0,0,4.794-3.57,6.671,6.671,0,0,0,.71,1.05,9.3,9.3,0,0,1-4.645,3.64c-0.007.08-.02,0.17-0.116,0.17a0.137,0.137,0,0,1-.117-0.1Zm10.1-2.48h1.951v1.12h-2.048a3.251,3.251,0,0,1-2.241,2.72,5.411,5.411,0,0,0-.886-0.97,2.39,2.39,0,0,0,1.887-1.75h-2.378v-1.12h2.462v-0.58a13.051,13.051,0,0,1-1.538.16,5.832,5.832,0,0,0-.491-1.07c0.084,0,.187.01,0.342,0.01a7.829,7.829,0,0,0,3.386-.76l0.859,0.81a0.126,0.126,0,0,1,.052.09,0.1,0.1,0,0,1-.116.1,0.488,0.488,0,0,1-.136-0.03,6.5,6.5,0,0,1-1.105.41v0.86Zm2.082,3.8-0.162-.16,5.693-5.78,0.161,0.16Zm10.5-.48h-4.368c0.065-.92.42-1.55,1.881-2.54,0.93-.64,1.15-0.79,1.15-1.16a0.653,0.653,0,0,0-.756-0.61c-0.743,0-.776.51-0.8,1.02h-1.363c0.032-.74.155-2.12,2.255-2.12a1.745,1.745,0,0,1,2.016,1.69,1.693,1.693,0,0,1-1.047,1.53,4.369,4.369,0,0,0-1.376,1.14h2.41v1.05Zm4.537-4.86a3.593,3.593,0,0,1,.7,2.28c0,0.96-.258,2.73-2.184,2.73-1.712,0-2.19-1.35-2.19-2.87,0-.85.227-2.69,2.19-2.69A2.055,2.055,0,0,1,466.088,1112.96Zm-1.486.55c-0.7,0-.846.9-0.846,1.68s0.149,1.67.846,1.67,0.841-.91.841-1.67C465.443,1114.39,465.287,1113.51,464.6,1113.51Zm4.348,4.31v-3.33h-0.975v-0.96a1.268,1.268,0,0,0,1.253-.98h1.06v5.27H468.95Zm4.478-1.35a0.7,0.7,0,0,0,.672.39,1.072,1.072,0,0,0,.931-1.29,1.762,1.762,0,0,1-1.215.46,1.724,1.724,0,0,1-1.835-1.74,1.866,1.866,0,0,1,2.054-1.88c1.564,0,2.326,1.15,2.326,2.82,0,1.5-.742,2.74-2.286,2.74a2.15,2.15,0,0,1-1.706-.72,1.874,1.874,0,0,1-.311-0.78h1.37Zm-0.1-2.2a0.772,0.772,0,0,0,.821.76,0.736,0.736,0,0,0,.775-0.76A0.8,0.8,0,0,0,473.331,1114.27Zm7.36-1.99,1.021,0.02c0.058,0,.149.01,0.149,0.09a0.179,0.179,0,0,1-.149.14v0.75h1.209v1.87h0.309v0.89h-1.5a3.9,3.9,0,0,0,1.654,1.47,2.438,2.438,0,0,0-.672.86,3.777,3.777,0,0,1-1.551-1.47,3.418,3.418,0,0,1-1.79,1.52,2.48,2.48,0,0,0-.717-0.87,2.793,2.793,0,0,0,1.828-1.51h-1.221v1.17H478.45V1117h-0.233v0.58h-0.866v-4.83h1.912v2.4h0.227v-1.87h1.2v-1Zm-2.241,2.16v-0.77h-0.233v0.77h0.233Zm-0.233.88v0.77h0.233v-0.77h-0.233Zm2.474-1.12h-0.31v0.95h0.31v-0.95Zm1.021,0.95h0.311v-0.95h-0.311v0.95Zm5.828-1.39h1.112v3.15h-3.206v-3.15h1.125v-0.36h-2.488v-0.96h5.925v0.96H487.54v0.36Zm1.37,3.45v-3.52l0.988,0.04c0.11,0.01.155,0.03,0.155,0.09a0.23,0.23,0,0,1-.142.15v4.35h-1v-0.16h-3.728v0.16h-1v-4.62l1,0.06c0.084,0.01.161,0.02,0.161,0.1,0,0.05-.026.07-0.161,0.14v3.21h3.728Zm-2.313-2.24v-0.45h-0.336v0.45H486.6Zm-0.336.72v0.45H486.6v-0.45h-0.336Zm1.589-.72v-0.45h-0.336v0.45h0.336Zm-0.336.72v0.45h0.336v-0.45h-0.336Zm3.479-3.47h2.339v0.83h-1.518v5.36h-0.821v-6.19Zm5.292,0.57c0.1,0,.161.01,0.161,0.09a0.151,0.151,0,0,1-.142.13v1.46a4.414,4.414,0,0,1-1.512,3.41,3.673,3.673,0,0,0-.95-0.79,3.506,3.506,0,0,0,.97-1.16,3.891,3.891,0,0,0,.277-1.51v-1.69Zm1.7-.07c0.071,0.01.142,0.01,0.142,0.09a0.209,0.209,0,0,1-.142.15v3.07a7.192,7.192,0,0,0,1.544-1.7,4.189,4.189,0,0,0,.6,1.07,10.128,10.128,0,0,1-2.216,2.21,3.986,3.986,0,0,0-.349.32l-0.808-.52a3.24,3.24,0,0,0,.033-0.41v-4.34Zm5.132,0.62c0.1,0.03.148,0.04,0.148,0.11a0.178,0.178,0,0,1-.154.14,10.227,10.227,0,0,1-1.654,4.15,5.631,5.631,0,0,0-1.157-.54,8.12,8.12,0,0,0,1.6-4.19Zm1.6-.48a13.666,13.666,0,0,1,1.938,4.06c-0.478.23-.5,0.25-1.169,0.6a10.589,10.589,0,0,0-1.751-3.99Zm1.221,0.74a0.645,0.645,0,1,1,.633-0.65A0.641,0.641,0,0,1,505.933,1113.6Zm0-.95a0.3,0.3,0,0,0-.3.3,0.3,0.3,0,1,0,.594,0A0.3,0.3,0,0,0,505.933,1112.65Zm2.276-.12a8.03,8.03,0,0,1,1.648,1.07,7.072,7.072,0,0,0-.7,1,6.519,6.519,0,0,0-1.635-1.09Zm-0.568,4.45a7.687,7.687,0,0,0,4.794-3.57,6.671,6.671,0,0,0,.71,1.05,9.3,9.3,0,0,1-4.645,3.64c-0.006.08-.02,0.17-0.116,0.17a0.137,0.137,0,0,1-.117-0.1Zm11.91,0.07v1.08h-5.983v-1.08h5.983Zm-0.311-4.51v1.07h-5.362v-1.07h5.362Zm-0.445,2.16v1.08h-4.471v-1.08h4.471Zm2.072-2.22,1.124,0.04c0.077,0,.161.01,0.161,0.1a0.218,0.218,0,0,1-.174.14v0.89h0.672v-1.36l1.079,0.04c0.1,0.01.155,0.04,0.155,0.1s-0.052.09-.174,0.15v1.07h0.665v-1.23l1.06,0.05c0.1,0.01.142,0.02,0.142,0.1,0,0.06-.046.09-0.162,0.14v0.94h0.75v1h-0.75v2.15h-1.04v-0.26H523.71v0.33h-1.06v-2.22h-0.672v2.45h3.812v1.02h-3.812v0.23h-1.111v-3.7h-0.633v-1h0.633v-1.17Zm3.508,2.17H523.71v0.92h0.665v-0.92Zm4.819,3.79h-2.338v-0.83h1.518v-5.36h0.82v6.19Zm4.52-5.04v0.61h-1.266v0.17H533.6v0.91l0.4,0.03c0.045,0.01.129,0.01,0.129,0.09,0,0.05-.013.05-0.149,0.13v0.29H536.1v0.81h-0.62l0.278,0.2a0.112,0.112,0,0,1,.071.09c0,0.09-.078.09-0.188,0.08a2.315,2.315,0,0,1-.349.36,3.473,3.473,0,0,0,.957.34,2.3,2.3,0,0,0-.569.84,5.6,5.6,0,0,1-1.951-1.1,5.741,5.741,0,0,0-.1.71c-1.13.22-1.893,0.32-2.326,0.38a0.207,0.207,0,0,1-.129.16,0.122,0.122,0,0,1-.1-0.13l-0.148-.83c0.38-.03.787-0.07,0.827-0.08v-0.23a10.4,10.4,0,0,1-1.28.41,1.943,1.943,0,0,0-.465-0.82,5.941,5.941,0,0,0,1.738-.38h-1.57v-0.81h2.759v-0.17c-0.181.01-.194,0.01-0.3,0.01a2.365,2.365,0,0,0-.182-0.56,1.035,1.035,0,0,0,.169.01,0.127,0.127,0,0,0,.135-0.17h-0.316v0.76H531.5v-0.76h-0.232v0.68h-0.86v-1.25H531.5v-0.17h-1.318v-0.61h0.381a2.2,2.2,0,0,0-.53-0.22,4.885,4.885,0,0,0,.524-0.96l0.743,0.13a0.075,0.075,0,0,1,.071.07c0,0.08-.084.08-0.142,0.09a0.521,0.521,0,0,1-.058.13H531.5v-0.37l0.944,0.03c0.058,0,.129.01,0.129,0.07s-0.013.05-.129,0.12v0.13H533.6v0.61h-1.156v0.17h1.266Zm-2.21,0v-0.17h-0.555c-0.039.07-.065,0.11-0.1,0.17H531.5Zm1.17,3.94c0.155-.03.607-0.1,0.962-0.17a4.707,4.707,0,0,1-.536-0.61c-0.084.06-.271,0.16-0.426,0.25v0.53Zm2.319-5.05,0.95,0.04a0.123,0.123,0,0,1,.149.1c0,0.07-.033.08-0.129,0.13v2.22c0,0.6-.272.77-1.228,0.71a1.712,1.712,0,0,0-.207-0.8h-0.672v-2.21l0.9,0.04a0.113,0.113,0,0,1,.117.08c0,0.06-.052.08-0.136,0.11v1.91h0.148c0.11,0,.11-0.08.11-0.14v-2.19Zm-0.865,4.15a4.455,4.455,0,0,0,.361.31,3.64,3.64,0,0,0,.272-0.31h-0.633Zm6.92-3.92a0.1,0.1,0,0,1,.09.1c0,0.06-.052.11-0.207,0.11-0.025.08-.154,0.39-0.18,0.46h2.17v1.02h-1.563v0.47h1.363v0.97h-1.363v0.5h1.486v1.01h-1.486v1.17h-1.131v-4.1a6.436,6.436,0,0,1-.749,1.18,3.137,3.137,0,0,0-.711-0.51v3.43h-1.1v-2.87a1.534,1.534,0,0,1-.167.2,2.94,2.94,0,0,0-.743-0.81,6.542,6.542,0,0,0,1.408-2.6l1.137,0.3a0.118,0.118,0,0,1,.117.1c0,0.08-.091.1-0.207,0.11a8.441,8.441,0,0,1-.453,1.02l0.091,0.06a0.136,0.136,0,0,1,.1.09,0.175,0.175,0,0,1-.181.15v0.38a6.237,6.237,0,0,0,1.137-2.21Zm8.65,3.05v0.88h-0.879c-0.006.09-.058,0.11-0.2,0.13a5.64,5.64,0,0,1-.466.53,8.993,8.993,0,0,1,1.325.58,4.167,4.167,0,0,0-.64.8,6.521,6.521,0,0,0-1.5-.73,7.3,7.3,0,0,1-2.946.68,4.007,4.007,0,0,0-.446-0.89,6.676,6.676,0,0,0,1.99-.17c-0.22-.05-0.233-0.05-0.375-0.08l-0.052.08a4.81,4.81,0,0,0-.911-0.31,6.5,6.5,0,0,0,.453-0.62h-1.28v-0.88h0.478a3.944,3.944,0,0,0-.581-0.7,5.518,5.518,0,0,0,1.628-.62h-1.525v-0.82h2.442v-0.2c-0.529.02-.678,0.02-1.615,0.03a2.682,2.682,0,0,0-.342-0.84c0.232,0.02.452,0.03,0.762,0.03a14.9,14.9,0,0,0,3.411-.3l0.6,0.78a0.094,0.094,0,0,1,.019.06,0.087,0.087,0,0,1-.1.08,0.313,0.313,0,0,1-.194-0.08c-0.7.1-.988,0.13-1.467,0.17v0.27H549.7v0.82h-1.532a5.365,5.365,0,0,0,1.6.64,2.76,2.76,0,0,0-.55.68H549.7Zm-3.49-.97a6.563,6.563,0,0,1-1.6.97h0.982a3.541,3.541,0,0,0,.272-0.58l0.348,0.08v-0.47Zm-0.045,1.85c-0.026.04-.032,0.05-0.09,0.15,0.032,0.01.775,0.17,0.956,0.22a3.428,3.428,0,0,0,.394-0.37h-1.26Zm2.733-.88a5.407,5.407,0,0,1-1.609-.97v0.66h-0.322a0.074,0.074,0,0,1,.025.04,0.165,0.165,0,0,1-.161.1c-0.039.09-.052,0.11-0.078,0.17H548.9Zm5.2,1.6h-1.466l0.426,0.34a0.157,0.157,0,0,1,.046.1,0.108,0.108,0,0,1-.124.1,0.427,0.427,0,0,1-.129-0.03c-0.277.14-.8,0.4-0.833,0.41a6.458,6.458,0,0,1-.95.31,3.3,3.3,0,0,0-.678-0.74,5.254,5.254,0,0,0,1.641-.49h-1.066v-3h4.975v3h-1.073a5.941,5.941,0,0,0,1.6.42,2.666,2.666,0,0,0-.62.81,8.3,8.3,0,0,1-2.087-.85Zm1.461-4.75v1.53h-4.213v-1.53h4.213Zm-0.692,2.58v-0.22h-2.836V1115h2.836Zm-2.836.51v0.23h2.836v-0.23h-2.836Zm0,0.73v0.25h2.836v-0.25h-2.836Zm0.387-3.14v0.22h2.068v-0.22h-2.068Zm9.333,2.04h-3.269v-0.56a4.509,4.509,0,0,1-.827.44,5.071,5.071,0,0,0-.737-0.91,4.874,4.874,0,0,0,2.572-1.89l1.266,0.12c0.065,0.01.1,0.03,0.1,0.07a0.136,0.136,0,0,1-.1.12,6.39,6.39,0,0,0,2.565,1.56,3.327,3.327,0,0,0-.672.96,6.85,6.85,0,0,1-.9-0.46v0.55Zm-4.368,2.06c0.039,0,.827-0.03.924-0.03a5.68,5.68,0,0,0,.388-0.82h-1.325v-0.97h5.492v0.97h-1.214a8.6,8.6,0,0,1,1.208,1.45,6.131,6.131,0,0,0-.885.65c-0.259-.43-0.284-0.48-0.343-0.56-0.536.08-3.159,0.31-3.818,0.36a0.209,0.209,0,0,1-.143.16,0.108,0.108,0,0,1-.09-0.11Zm3.709-3.05a8.464,8.464,0,0,1-1.021-.88,9.518,9.518,0,0,1-.969.88h1.99Zm-0.123,2.2h-0.924a0.213,0.213,0,0,1-.181.13c-0.11.23-.252,0.48-0.329,0.62,0.194-.01,1.157-0.08,1.376-0.09-0.084-.09-0.155-0.15-0.368-0.35Z" transform="translate(-396 -1112.16)"/>
</svg>
